<svg xmlns="http://www.w3.org/2000/svg" width="100" height="100">
  <style>
    .shade-1 {
      fill: hsl(192, 80%, 85%);
    }

    .shade-2 {
      fill: hsl(192, 80%, 78%);
    }

    .shade-3 {
      fill: hsl(192, 80%, 75%);
    }
  </style>
  <!-- Bottom -->
  <path class="shade-3" d="M0,30 l33.333,0 L50,90 Z" />
  <path class="shade-2" d="M0,30 m33.333,0 l33.333,0 L50,90 Z" />
  <path class="shade-3" d="M0,30 m33.333,0 m33.333,0 l33.333,0 L50,90 Z" />
  <!-- Top -->
  <path class="shade-1" d="M0,30 l16.666,-20 L33.333,30 Z" />
  <path class="shade-3" d="M0,30 m16.666,-20 L50,10 L33.333,30 Z" />
  <path class="shade-1" d="M0,30 m33.333,0 L50,10 l16.666,20 Z" />
  <path class="shade-3" d="M50,10 l16.666,20 l16.666,-20 Z" />
  <path class="shade-1" d="M100,30 l-33.333,0 l16.666,-20 Z" />
</svg>
