<svg xmlns="http://www.w3.org/2000/svg" width="100" height="100">
  <style>
    .shade-1 {
      fill: hsl(338, 80%, 60%);
    }

    .shade-2 {
      fill: hsl(338, 80%, 50%);
    }

    .shade-3 {
      fill: hsl(338, 80%, 40%);
    }
  </style>
  <!-- Outer -->
  <path class="shade-2" d="M10,15 L25,0 L75,0 L90,15 L90,85 L75,100 L25,100 L10,85 Z" />
  <!-- Inner -->
  <path class="shade-1" d="M25,25 L35,15 L65,15 L75,25 L75,75 L65,85 L35,85 L25,75 Z" />
  <!-- Corners -->
  <path class="shade-3" d="M10,15 L25,0 L35,15 L25,25 Z" />
  <path class="shade-3" d="M75,0 L90,15 L75,25 L65,15 Z" />
  <path class="shade-3" d="M90,85 L75,100 L65,85 L75,75 Z" />
  <path class="shade-3" d="M25,100 L10,85 L25,75 L35,85 Z" />
</svg>
